<?xml version="1.0" encoding="UTF-8" standalone="no"?>
<svg
   xmlns:dc="http://purl.org/dc/elements/1.1/"
   xmlns:cc="http://creativecommons.org/ns#"
   xmlns:rdf="http://www.w3.org/1999/02/22-rdf-syntax-ns#"
   xmlns:svg="http://www.w3.org/2000/svg"
   xmlns="http://www.w3.org/2000/svg"
   xmlns:sodipodi="http://sodipodi.sourceforge.net/DTD/sodipodi-0.dtd"
   xmlns:inkscape="http://www.inkscape.org/namespaces/inkscape"
   inkscape:export-ydpi="3640.8899"
   inkscape:export-xdpi="3640.8899"
   inkscape:export-filename="/Users/aknapen/Downloads/LOGO_Claimer/Logo_Claimr_White_4096x1631.png"
   width="108px"
   height="43px"
   viewBox="0 0 108 43"
   version="1.1"
   id="svg875"
   sodipodi:docname="logo.svg"
   inkscape:version="1.0 (4035a4f, 2020-05-01)">
  <metadata
     id="metadata881">
    <rdf:RDF>
      <cc:Work
         rdf:about="">
        <dc:format>image/svg+xml</dc:format>
        <dc:type
           rdf:resource="http://purl.org/dc/dcmitype/StillImage" />
        <dc:title>Group 2</dc:title>
      </cc:Work>
    </rdf:RDF>
  </metadata>
  <defs
     id="defs879" />
  <sodipodi:namedview
     inkscape:document-rotation="0"
     pagecolor="#ffffff"
     bordercolor="#666666"
     borderopacity="1"
     objecttolerance="10"
     gridtolerance="10"
     guidetolerance="10"
     inkscape:pageopacity="0"
     inkscape:pageshadow="2"
     inkscape:window-width="1280"
     inkscape:window-height="755"
     id="namedview877"
     showgrid="false"
     inkscape:zoom="9.8355761"
     inkscape:cx="45.229846"
     inkscape:cy="22.986816"
     inkscape:window-x="0"
     inkscape:window-y="23"
     inkscape:window-maximized="1"
     inkscape:current-layer="Group-2"
     inkscape:pagecheckerboard="true" />
  <title
     id="title856">Group 2</title>
  <g
     id="Page-1"
     stroke="none"
     stroke-width="1"
     fill="none"
     fill-rule="evenodd">
    <g
       id="-"
       transform="translate(-347.000000, -111.000000)">
      <g
         id="Group-2"
         transform="translate(347.000000, 111.000000)">
        <g
           style="font-weight:bold;font-size:20px;font-family:AvenirNext-Bold, 'Avenir Next';fill:#ffffff;fill-opacity:1"
           id="ClaimR"
           aria-label="ClaimR">
          <path
             id="path881"
             style="fill:#ffffff;fill-opacity:1"
             d="m 45.92,28.04 q -0.94,1.08 -2.32,1.72 -1.38,0.62 -3.18,0.62 -1.64,0 -3.04,-0.54 -1.38,-0.54 -2.4,-1.52 -1.02,-1 -1.6,-2.38 -0.58,-1.38 -0.58,-3.04 0,-1.7 0.58,-3.08 0.6,-1.38 1.64,-2.34 1.04,-0.98 2.44,-1.5 1.4,-0.52 3.02,-0.52 1.5,0 2.94,0.54 1.46,0.52 2.36,1.54 l -2.32,2.32 q -0.48,-0.66 -1.26,-0.98 -0.78,-0.32 -1.6,-0.32 -0.9,0 -1.66,0.34 -0.74,0.32 -1.28,0.9 -0.54,0.58 -0.84,1.38 -0.3,0.78 -0.3,1.72 0,0.96 0.3,1.76 0.3,0.8 0.82,1.38 0.54,0.56 1.28,0.88 0.74,0.32 1.62,0.32 1.02,0 1.78,-0.4 0.76,-0.4 1.22,-1.04 l 2.38,2.24 z" />
          <path
             id="path883"
             style="fill:#ffffff;fill-opacity:1"
             d="M 47.22625,30 V 14.88 h 3.32 V 30 Z" />
          <path
             id="path885"
             style="fill:#ffffff;fill-opacity:1"
             d="m 59.042812,25.66 h -0.419999 q -0.54,0 -1.100001,0.06 -0.539999,0.04 -0.98,0.18 -0.419999,0.14 -0.7,0.42 -0.28,0.26 -0.28,0.7 0,0.28 0.12,0.48 0.14,0.2 0.34,0.32 0.200001,0.12 0.460001,0.18 0.259999,0.04 0.5,0.04 1,0 1.519999,-0.54 0.54,-0.56 0.54,-1.5 z m -6.02,-4.26 q 0.880001,-0.84 2.04,-1.26 1.18,-0.42 2.4,-0.42 1.260001,0 2.120001,0.32 0.879999,0.3 1.42,0.96 0.539999,0.64 0.779999,1.64 0.26,0.98 0.26,2.34 V 30 h -3 v -1.06 h -0.06 q -0.380001,0.62 -1.160001,0.96 -0.76,0.34 -1.66,0.34 -0.6,0 -1.24,-0.16 -0.64,-0.16 -1.18,-0.52 -0.519999,-0.36 -0.86,-0.96 -0.34,-0.6 -0.34,-1.48 0,-1.08 0.580001,-1.74 0.6,-0.66 1.519999,-1.02 0.940001,-0.36 2.080001,-0.48 1.139999,-0.12 2.22,-0.12 V 23.6 q 0,-0.74 -0.520001,-1.08 -0.52,-0.36 -1.28,-0.36 -0.699999,0 -1.36,0.3 -0.64,0.3 -1.1,0.72 z" />
          <path
             id="path887"
             style="fill:#ffffff;fill-opacity:1"
             d="m 68.050938,16.86 q 0,0.38 -0.16,0.72 -0.14,0.32 -0.400001,0.56 -0.239999,0.24 -0.599999,0.38 -0.34,0.14 -0.720001,0.14 -0.8,0 -1.339999,-0.52 -0.540001,-0.54 -0.540001,-1.28 0,-0.36 0.14,-0.68 0.14,-0.34 0.400001,-0.58 0.259999,-0.24 0.599999,-0.38 0.340001,-0.16 0.74,-0.16 0.380001,0 0.720001,0.14 0.36,0.14 0.599999,0.38 0.260001,0.24 0.400001,0.58 0.16,0.32 0.16,0.7 z M 64.530937,30 v -9.96 h 3.28 V 30 Z" />
          <path
             id="path889"
             style="fill:#ffffff;fill-opacity:1"
             d="m 83.148437,30 v -5.44 q 0,-0.42 -0.06,-0.8 -0.06,-0.4 -0.22,-0.68 -0.159999,-0.28 -0.44,-0.44 -0.26,-0.18 -0.7,-0.18 -0.42,0 -0.739999,0.18 -0.300001,0.18 -0.520001,0.48 -0.199999,0.3 -0.3,0.7 -0.1,0.38 -0.1,0.8 V 30 h -3.280001 v -5.68 q 0,-0.86 -0.34,-1.36 -0.339999,-0.5 -1.08,-0.5 -0.78,0 -1.22,0.62 -0.42,0.62 -0.42,1.52 V 30 h -3.3 v -9.96 h 3.18 v 1.38 h 0.04 q 0.180001,-0.32 0.44,-0.62 0.28,-0.3 0.66,-0.52 0.380001,-0.24 0.84,-0.38 0.480001,-0.14 1.040001,-0.14 1.08,0 1.819999,0.44 0.760001,0.44 1.180001,1.26 0.5,-0.78 1.28,-1.24 0.779999,-0.46 1.899999,-0.46 1.020001,0 1.7,0.38 0.700001,0.36 1.120001,0.96 0.42,0.58 0.599999,1.32 0.2,0.72 0.2,1.42 V 30 Z" />
          <path
             id="path891"
             style="fill:#ffffff;fill-opacity:1"
             d="m 96.665,30 -3.06,-5.62 h -1.16 V 30 h -3.36 V 15.84 h 5.4 q 1.02,0 1.98,0.22 0.98,0.2 1.74,0.7 0.78,0.5 1.24,1.32 0.46,0.82 0.46,2.04 0,1.44 -0.78,2.42 -0.78,0.98 -2.16,1.4 l 3.7,6.06 z m -0.14,-9.82 q 0,-0.5 -0.22,-0.8 -0.2,-0.32 -0.54,-0.48 -0.32,-0.18 -0.74,-0.24 -0.4,-0.06 -0.78,-0.06 h -1.82 v 3.3 h 1.62 q 0.42,0 0.86,-0.06 0.44,-0.08 0.8,-0.26 0.36,-0.18 0.58,-0.52 0.24,-0.34 0.24,-0.88 z" />
        </g>
        <g
           id="pin"
           transform="translate(7.000000, 6.000000)"
           fill-rule="nonzero">
          <path
             d="M22,11.5277939 C22,15.0123138 20.3000882,17.7303009 18.4067584,20.4366989 L11,30.978241 L10.9837502,31 L3.59301586,20.4366989 C1.6996861,17.7303009 0,15.0123138 0,11.5273209 C0,5.17131804 4.93407746,0 10.9988716,0 L11.0437842,0 C17.0889432,0.0255432129 22,5.18692781 22,11.5277939 L22,11.5277939 Z"
             id="Path"
             fill="#FF623F" />
          <path
             d="M 19,11.999779 C 19,15.859912 15.410936,19 11,19 6.5890636,19 3,15.859912 3,11.999779 3,8.1400878 6.5890636,5 11,5 c 4.410936,0 8,3.1400878 8,6.999779 z"
             id="path863"
             fill="#ffffff"
             style="stroke-width:1.06904" />
          <path
             d="M22,11.535891 C22,15.0228584 20.3000882,17.7427546 18.4067584,20.4510536 L11,31 L11,0 L11.0437842,0 C17.0889432,0.0255611544 22,5.19057109 22,11.535891 L22,11.535891 Z"
             id="path865"
             fill="#E30020" />
          <path
             d="M19,11.999779 C19,15.8599122 15.4109364,19 11,19 L11,5 C15.4109364,5 19,8.14008778 19,11.999779 Z"
             id="path867"
             fill="#D6D6D8" />
          <polygon
             id="polygon869"
             fill="#0087FF"
             points="16 10.3074191 12.0019823 14.1288662 11.0903797 15 8 12.0135291 9.34597039 10.7132937 11.0980611 12.4062338 12.0019823 11.5420441 14.661711 9" />
        </g>
      </g>
    </g>
  </g>
</svg>
