<?xml version="1.0" encoding="UTF-8"?>
<svg width="22px" height="31px" viewBox="0 0 22 31" version="1.1" xmlns="http://www.w3.org/2000/svg" xmlns:xlink="http://www.w3.org/1999/xlink">
    <title>pin</title>
    <g id="Page-1" stroke="none" stroke-width="1" fill="none" fill-rule="evenodd">
        <g id="-" transform="translate(-354.000000, -117.000000)" fill-rule="nonzero">
            <g id="Group-2" transform="translate(347.000000, 111.000000)">
                <g id="pin" transform="translate(7.000000, 6.000000)">
                    <path d="M22,11.5277939 C22,15.0123138 20.3000882,17.7303009 18.4067584,20.4366989 L11,30.978241 L10.9837502,31 L3.59301586,20.4366989 C1.6996861,17.7303009 0,15.0123138 0,11.5273209 C0,5.17131804 4.93407746,0 10.9988716,0 L11.0437842,0 C17.0889432,0.0255432129 22,5.18692781 22,11.5277939 L22,11.5277939 Z" id="Path" fill="#FF623F"></path>
                    <path d="M17,11.999779 C17,15.8599122 13.8595694,19 10,19 C6.14043067,19 3,15.8599122 3,11.999779 C3,8.14008778 6.14043067,5 10,5 C13.8595694,5 17,8.14008778 17,11.999779 Z" id="Path" fill="#FFFFFF"></path>
                    <path d="M22,11.535891 C22,15.0228584 20.3000882,17.7427546 18.4067584,20.4510536 L11,31 L11,0 L11.0437842,0 C17.0889432,0.0255611544 22,5.19057109 22,11.535891 L22,11.535891 Z" id="Path" fill="#E30020"></path>
                    <path d="M19,11.999779 C19,15.8599122 15.4109364,19 11,19 L11,5 C15.4109364,5 19,8.14008778 19,11.999779 Z" id="Path" fill="#D6D6D8"></path>
                    <polygon id="Path" fill="#0087FF" points="16 10.3074191 12.0019823 14.1288662 11.0903797 15 8 12.0135291 9.34597039 10.7132937 11.0980611 12.4062338 12.0019823 11.5420441 14.661711 9"></polygon>
                </g>
            </g>
        </g>
    </g>
</svg>